/* XPM */
static char *a7e24661c70644658708ae72e1a5625a[] = {
/* columns rows colors chars-per-pixel */
"32 32 15 1 ",
"  c #020202",
". c gray6",
"X c gray11",
"o c #202020",
"O c gray17",
"+ c #323232",
"@ c #3E3E3E",
"# c gray27",
"$ c gray31",
"% c #5B5B5B",
"& c #717171",
"* c gray47",
"= c gray80",
"- c #D8D8D8",
"; c gray100",
/* pixels */
"X........O;O...................X",
"         o;o                    ",
".        o;%#####              .",
".        o;;;;;;;              .",
".              @;              .",
".              @;              .",
".              @;              .",
".              @;              .",
".              @;              .",
"$##############&;      ;;;;;;;;;",
";;;;;;;;;;;;;;;;;      ;&######$",
".                      ;@      .",
".                      ;@      .",
".                      ;@      .",
".                      ;@      .",
".                      ;@      .",
".                      ;@      .",
".                      ;@      .",
".                      ;@      .",
".         *************;@      .",
".         ;-============+      .",
".         ;@                   .",
".         ;@                   .",
".         ;@                   .",
".         ;@                   .",
".         ;@                   .",
".         ;@                   .",
".         ;@                   .",
".         ;@                   .",
".         ;@                   .",
"          ;@                    ",
"X.........;#...................X"
};
